<?xml version="1.0" encoding="UTF-8"?>
<svg id="Layer_1" data-name="Layer 1" xmlns="http://www.w3.org/2000/svg" width="149" height="35" version="1.1" viewBox="0 0 149 35">
  <defs>
    <style>
      .cls-1 {
        fill: #0047ff;
        fill-rule: evenodd;
        stroke-width: 0px;
      }
    </style>
  </defs>
  <path class="cls-1" d="M28.5,9.2c1.4,0,2.6-1.2,2.6-2.6s-1.2-2.6-2.6-2.6-2.6,1.2-2.6,2.6,1.2,2.6,2.6,2.6ZM22.7,13.5c0,1.5-.5,2.4-1.4,3.4h0s0,0,.1,0h0s0,0,0,0c.8.5,2.4,1.6,2.4,4s-2.4,5.7-5.4,5.7H4V8h13.2c2.9,0,5.4,2.6,5.5,5.5ZM18,13.5c0-1.3-1.1-1.9-2.3-1.9h-7v3.7h7c1.2,0,2.3-.6,2.3-1.9ZM8.7,18.9v4.2s0,0,0,0h8.2c1.2,0,2.3-.8,2.3-2.1,0-1.3-1.1-2.1-2.3-2.1h-8.2ZM30.8,10.3v16.3h-4.7V10.3h4.7ZM51.2,26.7v-8.6c0-4.6-3.2-7.7-7.8-7.7s-3.3.3-5.1,1.2v-1.2h-4.7v16.3h4.7v-8.2c0-3.3,1.9-4.5,4.1-4.5s4.1,1.5,4.1,4.5v8.2h4.7ZM67,11.5c-.7-.3-2.7-1.2-5.4-1.2-4.4,0-8.6,3-8.6,7.7s4.1,8.1,8.6,8.1,4.1-.5,5.4-1.4c0,1.4-1,4.3-5.4,4.3s-4.4-1.4-5.1-2.3l-3.5,2.3c1.5,2.4,4.9,4.1,9.3,4.1s9.3-2.9,9.3-8.4v-14.3h-4.7v1.2ZM62.3,22c-2.6,0-4.7-1.8-4.7-4s2.1-4,4.7-4,4.7,1.8,4.7,4-2.1,4-4.7,4ZM95.5,14c-1.8,0-5,.5-7.8,3.9,2.8,3.4,6,3.9,7.8,3.9v4.8c-2.7,0-6.9-.8-10.7-4.7-3.6,4-8.3,4.7-10.9,4.7v-4.8c1.9,0,5.4-.6,7.9-3.9-2.5-3.3-6-3.9-7.9-3.9v-4.8c2.6,0,7.2.8,10.9,4.7,3.8-4,8-4.7,10.7-4.7v4.8Z"/>
</svg>